# xmcd CD database file
#
# Track frame offsets:
#	150
#	29799
#	52772
#	73893
#	98743
#	127389
#	158376
#	160491
#	168715
#	178801
#
# Disc length: 2730 seconds
#
# Revision: 0
# Processed by: cddbd v1.5.2PL0 Copyright (c) Steve Scherf et al.
# Submitted via: CDex 1.70beta2
#
DISCID=8e0aa80a
DTITLE=Lelio Luttazzi - Live In Trieste
DYEAR=2009
DGENRE=Jazz
TTITLE0=George Gershwin Medley
TTITLE1=Hello, Dolly
TTITLE2=Indiana
TTITLE3=Basin Street Blues
TTITLE4=Cole Porter Medley
TTITLE5=Gorni Kramer Medley
TTITLE6=Presentazione Trieste
TTITLE7=Ritorno A Trieste
TTITLE8=El Can De Trieste
TTITLE9=Il Giovanotto Matto
EXTD=YEAR: 2009
EXTT0=
EXTT1=
EXTT2=
EXTT3=
EXTT4=
EXTT5=
EXTT6=
EXTT7=
EXTT8=
EXTT9=
PLAYORDER=
